<svg width="20" height="20" viewBox="0 0 20 20" fill="none" xmlns="http://www.w3.org/2000/svg">
<path d="M7.55194 18.7821V15.7152C7.55192 14.9381 8.18387 14.3067 8.96664 14.3018H11.8408C12.6271 14.3018 13.2645 14.9346 13.2645 15.7152V18.7732C13.2645 19.4473 13.8122 19.9951 14.4911 20H16.452C17.3678 20.0023 18.247 19.6428 18.8954 19.0007C19.5438 18.3586 19.9082 17.4868 19.9082 16.5775V7.86585C19.9082 7.13139 19.5803 6.43471 19.0128 5.9635L12.3512 0.674268C11.1867 -0.250877 9.52358 -0.220992 8.39359 0.745384L1.87522 5.9635C1.28094 6.42082 0.925755 7.11956 0.908203 7.86585V16.5686C0.908203 18.4637 2.45558 20 4.36438 20H6.28049C6.60738 20.0023 6.92169 19.8751 7.15368 19.6464C7.38566 19.4178 7.51613 19.1067 7.51612 18.7821H7.55194Z" fill="#2E2F3C"/>
</svg>
