<svg width="17" height="20" viewBox="0 0 17 20" fill="none" xmlns="http://www.w3.org/2000/svg">
<path d="M14.0041 12.0002C15.2461 12.0002 16.2529 13.007 16.2529 14.2491V15.1675C16.2529 15.7409 16.0737 16.2999 15.7403 16.7664C14.1945 18.9296 11.6702 20.0013 8.24988 20.0013C4.82891 20.0013 2.30595 18.9292 0.763786 16.7648C0.431823 16.2989 0.253418 15.7411 0.253418 15.169V14.2491C0.253418 13.007 1.26027 12.0002 2.50229 12.0002H14.0041ZM8.24988 0.00488281C11.0113 0.00488281 13.2499 2.24346 13.2499 5.00488C13.2499 7.76631 11.0113 10.0049 8.24988 10.0049C5.48845 10.0049 3.24988 7.76631 3.24988 5.00488C3.24988 2.24346 5.48845 0.00488281 8.24988 0.00488281Z" fill="#C5C6D3"/>
</svg>
